# Blender v2.79 (sub 0) OBJ File: 'vector.blend'
# www.blender.org
mtllib vector.mtl
o Plane.001
v 0.000001 -0.025972 -0.343125
v 0.000001 0.000000 -0.403205
v 0.000001 0.025972 -0.343125
vn 1.0000 -0.0000 0.0000
usemtl None
s off
f 1//1 2//1 3//1
o Plane
v 0.000000 -0.009202 -0.379955
v -0.000000 0.009202 -0.379955
v 0.000000 -0.009202 0.000000
v -0.000000 0.009202 0.000000
v 0.000000 0.000000 -0.379955
v 0.000000 0.000000 0.000000
vn 1.0000 0.0000 0.0000
vn 0.0000 0.0000 1.0000
usemtl None
s off
f 9//2 8//2 5//2 7//2
f 6//2 4//2 8//2 9//2
f 6//3 9//3 7//3
