<?xml version="1.0" encoding="utf-8"?>
<!-- Generator: Adobe Illustrator 23.0.1, SVG Export Plug-In . SVG Version: 6.00 Build 0)  -->
<svg version="1.1" id="Laag_1" xmlns="http://www.w3.org/2000/svg" xmlns:xlink="http://www.w3.org/1999/xlink" x="0px" y="0px"
	 viewBox="0 0 598 598.7" style="enable-background:new 0 0 598 598.7;" xml:space="preserve">
<style type="text/css">
	.st0{fill:#FECD2E;}
</style>
<path class="st0" d="M458.7,157.1c8.9,8.6,17.7,17.3,26.4,26.1c36.2,36.3,72.5,72.5,108.8,108.8c1.6,1.6,3.2,3.2,4.2,5.3
	C598,397.6,598,498.2,598,598.7c-197.3,0-394.5,0-591.8,0c-1.1,0-2.3-0.1-3.4,0c-2.3,0.2-3.3-0.4-2.5-3c1.2-3.3-0.3-6.7-0.3-10
	c0-95,0-189.9,0-284.9c0-2.3,0.7-3.7,2.6-5.3c4.6-3.6,8.2-8.4,12.3-12.5c2.4-2.4,4.7-5,7.4-7.3c2.9-2.5,5.6-5.3,8.3-8
	c4.5-4.5,9.1-9,13.6-13.6s9-9.2,13.5-13.8c4.2-4.2,8.4-8.3,12.6-12.4c4.6-4.5,9.2-9,13.6-13.7c4-4.2,8.3-8.2,12.3-12.4
	c6.4-6.8,13.3-13.1,19.9-19.7c5.1-5,10.1-10,15.1-15c38.4-38.4,76.8-76.8,115.2-115.2c7.4-7.3,14.5-14.9,22.1-22
	c6.4-6,12.3-12.4,18.7-18.4c3.9-3.7,7.6-7.7,11.5-11.5c0.5,0,1,0,1.5,0c1.7,0.9,3.2,2,4.5,3.4c16.4,16.6,33.1,33,49.6,49.5
	c3.4,3.4,6.8,7,10.8,10.5L458.7,157.1z M570.1,310.7l-9.3-10.3c-0.9-0.9-1.5-1.6-2.1-2.2C509.5,249,460.5,200,411.3,150.9
	c-4.1-4.1-8.6-8.1-12.5-12.3c-5.7-5.9-11.6-11.8-17.4-17.6c-5.8-5.8-11.6-11.7-17.7-17.3c-6.1-5.5-11.3-11.9-17.3-17.6
	c-2.1-2-3.8-4.1-5.8-6c-4.1-3.9-8.4-7.7-12.3-11.7c-4.2-4.1-8.1-8.6-12.3-12.7c-4.7-4.5-9.5-8.9-13.7-13.8c-2.8-3.3-3.9-3.5-7-0.4
	c-1.9,1.9-3.9,3.9-5.7,5.7c-69.5,69.4-138.8,138.6-208.1,208c-15,15-29.8,30.3-44.3,45l-9.3,11.4v6.2c0.1,85,0.1,170,0,255
	c0,3.1,0.6,4.1,4,4.1c94.6-0.1,189.3-0.1,283.9,0c3.4,0,4.1-1,4.1-4.1c-0.1-69.8,0-139.6-0.1-209.4c0-3.5,0.9-4.6,4.6-4.6
	c38.2,0.1,76.4,0.1,114.6,0.1c5.1,0,5.1,0,5.1,4.9c0,69.5,0,139.1-0.1,208.7c0,3.7,1,4.4,4.6,4.4c39.1-0.1,78-0.1,117.1,0
	c3.5,0,4.3-0.9,4.3-4.3c-0.1-84.8-0.1-169.8,0-254.6V310.7z M340.9,380.5c0,23.5,0,47,0,70.5c0,40.8,0.1,81.6-0.1,122.4
	c0,3.1,0.6,3.7,3.2,3.7c26.3-0.1,52.6-0.1,79-0.1c1.2,0,2.2,0,3.1,0c0-1.8,0-3.4,0-5c0-64,0-127.9,0.1-191.8c0-2.9-0.5-3.8-3.4-3.8
	c-26.5,0.1-52.9,0.1-79.3,0.1c-0.9,0-1.9,0-3.1,0C341.1,377.9,340.9,379.2,340.9,380.5z"/>
<path class="st0" d="M531.8,127.6"/>
<path class="st0" d="M194,296.8"/>
</svg>
