<?xml version="1.0" encoding="utf-8"?>
<!-- Generator: Adobe Illustrator 23.0.1, SVG Export Plug-In . SVG Version: 6.00 Build 0)  -->
<svg version="1.1" id="Laag_1" xmlns="http://www.w3.org/2000/svg" xmlns:xlink="http://www.w3.org/1999/xlink" x="0px" y="0px"
	 viewBox="0 0 598.02 598.74" style="enable-background:new 0 0 598.02 598.74;" xml:space="preserve">
<style type="text/css">
	.st0{fill:#FECD2E;}
</style>
<g>
	<path class="st0" d="M598.02,598.74c-197.25,0-394.51,0-591.76,0c-1.14,0-2.28-0.08-3.41,0.01c-2.31,0.18-3.29-0.41-2.45-2.99
		c1.08-3.36-0.37-6.73-0.37-10.11C0.05,490.69,0.05,395.72,0,300.76c0-2.34,0.66-3.72,2.58-5.25c4.58-3.65,8.16-8.4,12.31-12.51
		c2.44-2.41,4.7-5.04,7.37-7.26c2.94-2.46,5.55-5.32,8.28-8.03c4.53-4.51,9.06-9.02,13.56-13.57c4.53-4.58,8.99-9.22,13.54-13.78
		c4.17-4.19,8.42-8.29,12.62-12.45c4.57-4.53,9.23-8.98,13.64-13.67c3.99-4.24,8.28-8.18,12.26-12.44
		c6.37-6.81,13.3-13.11,19.95-19.66c5.05-4.98,10.05-10.02,15.07-15.04c38.4-38.4,76.79-76.79,115.19-115.19
		c7.35-7.35,14.53-14.88,22.1-21.99c6.38-5.99,12.34-12.4,18.73-18.39c3.92-3.68,7.63-7.69,11.46-11.53c0.51,0,1.01,0,1.52,0
		c1.7,0.87,3.16,2.03,4.51,3.39c16.44,16.59,33.07,33,49.6,49.5c3.44,3.43,6.79,7,10.78,10.45c0.01-18.05,0-35.72,0.01-53.38
		c0-1.77-0.04-3.53,0.09-5.3c0.16-2.11,1.27-3.2,3.37-3.34c1.01-0.07,2.02-0.08,3.03-0.08c25.13,0,50.26-0.01,75.39,0
		c6.23,0,6.59,0.37,6.59,6.69c0.01,45.59,0.07,91.18-0.08,136.77c-0.02,5.09,1.52,8.67,5.2,12.25c8.86,8.62,17.66,17.32,26.4,26.07
		c36.22,36.28,72.5,72.52,108.76,108.77c1.61,1.61,3.22,3.21,4.2,5.31C598.02,397.64,598.02,498.19,598.02,598.74z M18.17,303.83
		c-3.58,0-4.58,0.74-4.58,4.48c0.12,91.07,0.11,182.14,0.03,273.21c0,3.29,0.61,4.43,4.24,4.42c99.78-0.11,199.57-0.11,299.35,0
		c3.59,0,4.25-1.07,4.25-4.4c-0.09-74.78-0.04-149.55-0.15-224.33c-0.01-3.84,1.05-4.89,4.88-4.88
		c40.29,0.14,80.59,0.08,120.88,0.08c5.43,0,5.43,0,5.43,5.29c0,74.52,0.04,149.05-0.1,223.57c-0.01,3.97,1.12,4.66,4.8,4.65
		c41.18-0.13,82.35-0.14,123.53,0.01c3.72,0.01,4.49-0.98,4.49-4.57c-0.11-90.94-0.11-181.89,0.01-272.83
		c0.01-3.82-0.9-4.73-4.72-4.72c-93.72,0.12-187.44,0.09-281.17,0.09S111.89,303.94,18.17,303.83z M578.27,296.77
		c-0.97-1.01-1.56-1.66-2.19-2.28C523.83,242.23,471.6,189.96,419.3,137.77c-4.4-4.39-9.07-8.58-13.34-13.05
		c-6.07-6.35-12.31-12.56-18.55-18.73c-6.22-6.15-12.26-12.5-18.76-18.4c-6.47-5.87-12.04-12.71-18.38-18.73
		c-2.17-2.06-4.03-4.36-6.2-6.39c-4.42-4.12-8.86-8.22-13.15-12.48c-4.46-4.43-8.59-9.21-13.14-13.53
		c-5.02-4.76-10.09-9.46-14.58-14.72c-3.02-3.54-4.08-3.7-7.38-0.35c-2.01,2.05-4.06,4.06-6.09,6.09
		c-73.78,73.78-147.58,147.53-221.31,221.34c-15.98,15.99-31.7,32.24-47.11,47.93C206.3,296.77,392.08,296.77,578.27,296.77z
		 M335.78,370.56c0.01,25.76,0.01,51.52,0.01,77.28c0,44.7,0.06,89.4-0.11,134.1c-0.01,3.38,0.69,4.01,3.93,4
		c31.82-0.13,63.64-0.08,95.46-0.08c1.37,0,2.74,0,3.8,0c0-2.01,0-3.73,0-5.45c0-70.08-0.02-140.16,0.07-210.24
		c0-3.23-0.63-4.21-4.08-4.2c-31.95,0.15-63.89,0.09-95.84,0.09c-1.13,0-2.25,0-3.83,0C336,367.78,335.78,369.19,335.78,370.56z
		 M438.89,18.31c0-1.99-0.06-3.23-2.72-3.21c-18.17,0.12-36.34,0.1-54.51,0.01c-2.23-0.01-2.71,0.78-2.71,2.84
		c0.06,19.68,0.06,39.37,0,59.05c-0.01,1.68,0.59,2.81,1.73,3.93c3.72,3.62,7.15,7.58,11.12,10.9c2.33,1.95,3.91,4.53,6.26,6.35
		c4.81,3.71,8.67,8.41,12.91,12.66c4.25,4.25,8.57,8.51,12.8,12.79c4.81,4.87,9.4,10.04,15.09,14.53
		C438.86,98.06,438.86,58.18,438.89,18.31z"/>
	<path class="st0" d="M424.46,476.08c-0.26,7.69-6.58,15.18-15.47,15.1c-9.37-0.09-15.34-7.21-15.48-15.11
		c-0.15-8.31,6.46-15.33,15.6-15.33C417.59,460.74,424.58,467.81,424.46,476.08z"/>
	<path class="st0" d="M153.26,338.02c43.19-0.44,80.65,35.84,79.46,81.77c-1.09,42.05-35.35,77.35-79.93,77.32
		c-44.55-0.03-80.5-35.57-79.85-81.22C73.55,374.04,107.97,337.58,153.26,338.02z M156.88,410.38c-0.03,2.47,0.39,3.51,3.22,3.49
		c18.66-0.13,37.33-0.1,55.99-0.02c2.22,0.01,3.17-0.44,3.04-2.9c-0.18-3.39-1.51-6.46-2.12-9.67c-1.52-7.97-4.94-15.1-9.44-21.5
		c-8.52-12.1-19.85-20.82-34.27-25.1c-4.36-1.29-8.57-3.02-13.26-3.1c-2.49-0.04-3.2,0.7-3.16,3.17c0.14,9.33,0.05,18.66,0.05,27.99
		C156.93,391.97,157,401.18,156.88,410.38z M156.85,480.12c-0.07,2.96,0.89,3.77,3.64,3.43c6.8-0.83,13.34-2.77,19.5-5.55
		c13.4-6.04,23.99-15.35,31.01-28.47c4.17-7.79,6.84-16.06,8.09-24.8c0.37-2.6-0.56-3.42-3.27-3.4c-18.56,0.12-37.13,0.12-55.69,0
		c-2.81-0.02-3.28,0.99-3.24,3.48c0.13,9.09,0.05,18.19,0.05,27.28C156.93,461.43,157.06,470.78,156.85,480.12z M148.67,401.52
		c0-15.52-0.06-31.04,0.06-46.56c0.02-2.67-0.74-3.52-3.39-3.35c-3.25,0.2-6.19,1.43-9.27,2.15c-13.41,3.11-24.13,10.31-33.2,20.43
		c-5.63,6.28-9.84,13.35-12.63,21.23c-2.07,5.84-3.06,11.94-3.28,18.25c20.62,0,41.29,0,61.7,0
		C148.67,409.52,148.67,405.52,148.67,401.52z M148.67,478.64c0-17.92-0.01-35.84,0.01-53.76c0-1.94,0.31-3.59-2.77-3.56
		c-18.68,0.15-37.35,0.1-56.03,0.03c-2.17-0.01-2.95,0.66-2.7,2.79c0.83,7.02,2.11,13.79,5.16,20.38
		c7.43,16.02,19.04,27.51,35.26,34.1c6.68,2.71,13.58,5.46,21.06,4.84C148.67,481.63,148.67,480.14,148.67,478.64z"/>
</g>
</svg>
