<?xml version="1.0" encoding="utf-8"?>
<!-- Generator: Adobe Illustrator 23.0.1, SVG Export Plug-In . SVG Version: 6.00 Build 0)  -->
<svg version="1.1" id="Laag_1" xmlns="http://www.w3.org/2000/svg" xmlns:xlink="http://www.w3.org/1999/xlink" x="0px" y="0px"
	 viewBox="0 0 598 598.7" style="enable-background:new 0 0 598 598.7;" xml:space="preserve">
<style type="text/css">
	.st0{fill:#FECD2E;}
</style>
<path class="st0" d="M458.7,157.1c8.9,8.6,17.7,17.3,26.4,26.1c36.2,36.3,72.5,72.5,108.8,108.8c1.6,1.6,3.2,3.2,4.2,5.3
	C598,397.6,598,498.2,598,598.7c-197.3,0-394.5,0-591.8,0c-1.1,0-2.3-0.1-3.4,0c-2.3,0.2-3.3-0.4-2.5-3c1.2-3.3-0.3-6.7-0.3-10
	c0-95,0-189.9,0-284.9c0-2.3,0.7-3.7,2.6-5.3c4.6-3.6,8.2-8.4,12.3-12.5c2.4-2.4,4.7-5,7.4-7.3c2.9-2.5,5.6-5.3,8.3-8
	c4.5-4.5,9.1-9,13.6-13.6s9-9.2,13.5-13.8c4.2-4.2,8.4-8.3,12.6-12.4c4.6-4.5,9.2-9,13.6-13.7c4-4.2,8.3-8.2,12.3-12.4
	c6.4-6.8,13.3-13.1,19.9-19.7c5.1-5,10.1-10,15.1-15c38.4-38.4,76.8-76.8,115.2-115.2c7.4-7.3,14.5-14.9,22.1-22
	c6.4-6,12.3-12.4,18.7-18.4c3.9-3.7,7.6-7.7,11.5-11.5c0.5,0,1,0,1.5,0c1.7,0.9,3.2,2,4.5,3.4c16.4,16.6,33.1,33,49.6,49.5
	L458.7,157.1z M335.8,370.6c0,25.8,0,51.5,0,77.3c0,44.7,0.1,89.4-0.1,134.1c0,3.4,0.7,4,3.9,4c31.8-0.1,63.6-0.1,95.5-0.1
	c1.4,0,2.7,0,3.8,0c0-2,0-3.7,0-5.5c0-70.1,0-140.2,0.1-210.2c0-3.2-0.6-4.2-4.1-4.2c-32,0.1-63.9,0.1-95.8,0.1c-1.1,0-2.3,0-3.8,0
	C336,367.8,335.8,369.2,335.8,370.6z"/>
</svg>
