<?xml version="1.0" encoding="utf-8"?>
<!-- Generator: Adobe Illustrator 23.0.1, SVG Export Plug-In . SVG Version: 6.00 Build 0)  -->
<svg version="1.1" id="Capa_1" xmlns="http://www.w3.org/2000/svg" xmlns:xlink="http://www.w3.org/1999/xlink" x="0px" y="0px"
	 viewBox="0 0 676 512" style="enable-background:new 0 0 676 512;" xml:space="preserve">
<style type="text/css">
	.st0{fill:#303C42;}
	.st1{fill:#F2F2F2;}
	.st2{fill:#FFCA28;}
	.st3{opacity:0.2;fill:#FFFFFF;enable-background:new    ;}
	.st4{opacity:0.1;enable-background:new    ;}
	.st5{fill:#5C6671;}
	.st6{fill:url(#SVGID_1_);}
	.st7{fill:url(#SVGID_2_);}
</style>
<path class="st0" d="M495.3,192H228.7c-5.9,0-10.7,4.8-10.7,10.7v266.7c0,23.5,19.1,42.7,42.7,42.7h298.7
	c23.5,0,42.7-19.1,42.7-42.7V202.7c0-5.9-4.8-10.7-10.7-10.7h-32"/>
<path class="st0" d="M327.3,192v-42.7C327.3,67,260.3,0,178,0S28.7,67,28.7,149.3V160c0,5.9,4.8,10.7,10.7,10.7H82
	c5.9,0,10.7-4.8,10.7-10.7v-10.7c0-47.1,38.3-85.3,85.3-85.3s85.3,38.3,85.3,85.3V192"/>
<path class="st1" d="M178,42.7c-58.8,0-106.7,47.9-106.7,106.7H50c0-70.6,57.4-128,128-128s128,57.4,128,128V192h-21.3v-42.7
	C284.7,90.5,236.8,42.7,178,42.7z"/>
<path class="st2" d="M580.7,469.3c0,11.8-9.6,21.3-21.3,21.3H260.7c-11.8,0-21.3-9.6-21.3-21.3v-256h341.3V469.3z"/>
<path class="st3" d="M282,469.3v-256h-42.7v256c0,11.8,9.6,21.3,21.3,21.3H298C289.2,490.7,282,481.1,282,469.3z"/>
<path class="st4" d="M538,213.3v256c0,11.8-7.2,21.3-16,21.3h37.3c11.8,0,21.3-9.6,21.3-21.3v-256L538,213.3L538,213.3z"/>
<path class="st0" d="M384.8,354.3l-6.7,60.5c-0.3,3,0.6,6,2.7,8.3c2,2.3,4.9,3.6,7.9,3.6h42.7c3,0,5.9-1.3,7.9-3.6s3-5.3,2.7-8.3
	l-6.7-60.5c10.9-7.9,17.5-20.5,17.5-34.3c0-23.5-19.1-42.7-42.7-42.7s-42.7,19.1-42.7,42.7C367.3,333.8,373.9,346.4,384.8,354.3z"/>
<path class="st5" d="M410,298.7c11.8,0,21.3,9.6,21.3,21.3c0,8.2-4.6,15.5-12.1,19.1c-4.1,2-6.5,6.3-6,10.8l6.2,55.4h-18.8l6.2-55.4
	c0.5-4.5-1.9-8.8-6-10.8c-7.5-3.6-12.1-10.9-12.1-19.1C388.7,308.2,398.2,298.7,410,298.7z"/>
<path class="st4" d="M401.7,340c-1.4-2.9-2.4-6-2.4-9.3c0-11.8,9.6-21.3,21.3-21.3c3.1,0,6,0.7,8.7,2c-3.3-7.4-10.7-12.6-19.4-12.6
	c-11.8,0-21.3,9.6-21.3,21.3c0,8.2,4.6,15.5,12.1,19.1C401.2,339.3,401.3,339.8,401.7,340z"/>
<path class="st4" d="M415.9,374l-2.5-22.3c-0.7-0.6-1.1-1.5-2-1.9c-2.1-1-3.9-2.4-5.5-3.9c0.4,1.3,1,2.6,0.8,4l-6.2,55.4h11.9
	L415.9,374z"/>
<linearGradient id="SVGID_1_" gradientUnits="userSpaceOnUse" x1="-53.6192" y1="223.5032" x2="-40.7595" y2="229.4997" gradientTransform="matrix(21.3333 0 0 21.3333 1199.6664 -4713.7295)">
	<stop  offset="0" style="stop-color:#FFFFFF;stop-opacity:0.2"/>
	<stop  offset="1" style="stop-color:#FFFFFF;stop-opacity:0"/>
</linearGradient>
<path class="st6" d="M261.6,192v-42.7c0-47.1-38.3-85.3-85.3-85.3s-85.3,38.3-85.3,85.3V160c0,5.9-4.8,10.7-10.7,10.7H37.6
	c-5.9,0-10.7-4.8-10.7-10.7v-10.7C26.9,67,93.9,0,176.3,0s149.3,67,149.3,149.3V192"/>
<linearGradient id="SVGID_2_" gradientUnits="userSpaceOnUse" x1="-47.0277" y1="232.5155" x2="-27.2424" y2="241.7415" gradientTransform="matrix(21.3333 0 0 21.3333 1199.6664 -4713.7295)">
	<stop  offset="0" style="stop-color:#FFFFFF;stop-opacity:0.2"/>
	<stop  offset="1" style="stop-color:#FFFFFF;stop-opacity:0"/>
</linearGradient>
<path class="st7" d="M495.3,192H228.7c-5.9,0-10.7,4.8-10.7,10.7v266.7c0,23.5,19.1,42.7,42.7,42.7h298.7
	c23.5,0,42.7-19.1,42.7-42.7V202.7c0-5.9-4.8-10.7-10.7-10.7h-32"/>
</svg>
